HIERARCHY
ROOT SpineBase
{
  OFFSET 0.000000 0.000000 0.000000
  CHANNELS 6 Xposition Yposition Zposition Zrotation Xrotation Yrotation
  JOINT SpineMid
  {
    OFFSET -0.000000 32.646288 0.000000
    CHANNELS 3 Zrotation Xrotation Yrotation
    JOINT SpineShoulder
    {
      OFFSET 0.114787 24.236520 -0.776015
      CHANNELS 3 Zrotation Xrotation Yrotation
      JOINT Neck
      {
        OFFSET 0.066728 8.019969 -0.602915
        CHANNELS 3 Zrotation Xrotation Yrotation
        JOINT Head
        {
          OFFSET 5.315101 12.030749 4.516272
          CHANNELS 3 Zrotation Xrotation Yrotation
          End Site
          {
            OFFSET 0 0 0
          }
        }
      }
      JOINT ShoulderLeft
      {
        OFFSET -9.454289 -3.684211 -12.260391
        CHANNELS 3 Zrotation Xrotation Yrotation
        JOINT ElbowLeft
        {
          OFFSET -7.094764 -24.964137 -7.016782
          CHANNELS 3 Zrotation Xrotation Yrotation
          JOINT WristLeft
          {
            OFFSET -0.696029 -23.043276 -4.829755
            CHANNELS 3 Zrotation Xrotation Yrotation
            JOINT HandLeft
            {
              OFFSET 0.969242 -8.287715 0.498720
              CHANNELS 3 Zrotation Xrotation Yrotation
              JOINT HandTipLeft
              {
                OFFSET -0.492932 -8.243978 -0.694957
                CHANNELS 3 Zrotation Xrotation Yrotation
                End Site
                {
                  OFFSET 0 0 0
                }
              }
              JOINT ThumbLeft
              {
                OFFSET -3.710727 -0.819040 -4.499364
                CHANNELS 3 Zrotation Xrotation Yrotation
                End Site
                {
                  OFFSET 0 0 0
                }
              }
            }
          }
        }
      }
      JOINT ShoulderRight
      {
        OFFSET 11.068001 -4.849424 13.295478
        CHANNELS 3 Zrotation Xrotation Yrotation
        JOINT ElbowRight
        {
          OFFSET 2.817149 -25.205395 5.373406
          CHANNELS 3 Zrotation Xrotation Yrotation
          JOINT WristRight
          {
            OFFSET 1.798046 -26.622523 -2.343895
            CHANNELS 3 Zrotation Xrotation Yrotation
            JOINT HandRight
            {
              OFFSET -1.503692 -8.126801 1.205006
              CHANNELS 3 Zrotation Xrotation Yrotation
              JOINT HandTipRight
              {
                OFFSET 0.475900 -7.499447 0.340202
                CHANNELS 3 Zrotation Xrotation Yrotation
                End Site
                {
                  OFFSET 0 0 0
                }
              }
              JOINT ThumbRight
              {
                OFFSET -2.665764 2.090307 -2.835162
                CHANNELS 3 Zrotation Xrotation Yrotation
                End Site
                {
                  OFFSET 0 0 0
                }
              }
            }
          }
        }
      }
    }
  }
  JOINT HipLeft
  {
    OFFSET -4.151559 1.549943 -8.404067
    CHANNELS 3 Zrotation Xrotation Yrotation
    JOINT KneeLeft
    {
      OFFSET -7.656303 -34.482186 -8.715696
      CHANNELS 3 Zrotation Xrotation Yrotation
      JOINT AnkleLeft
      {
        OFFSET -6.912739 -39.398244 4.332613
        CHANNELS 3 Zrotation Xrotation Yrotation
        JOINT FootLeft
        {
          OFFSET 2.221896 -7.997136 -5.103041
          CHANNELS 3 Zrotation Xrotation Yrotation
          End Site
          {
            OFFSET 0 0 0
          }
        }
      }
    }
  }
  JOINT HipRight
  {
    OFFSET 4.930886 0.153131 1.271370
    CHANNELS 3 Zrotation Xrotation Yrotation
    JOINT KneeRight
    {
      OFFSET -4.379544 -37.395582 0.339697
      CHANNELS 3 Zrotation Xrotation Yrotation
      JOINT AnkleRight
      {
        OFFSET -6.884518 -37.580538 14.093630
        CHANNELS 3 Zrotation Xrotation Yrotation
        JOINT FootRight
        {
          OFFSET 4.942688 -6.370910 -6.617208
          CHANNELS 3 Zrotation Xrotation Yrotation
          End Site
          {
            OFFSET 0 0 0
          }
        }
      }
    }
  }
}
MOTION
Frames: 12
Frame Time: 0.033333
-37.816511 88.877040 353.402849 0.000000 0.000000 -46.810687 -0.000000 0.000000 46.810687 -0.000000 0.000000 0.000000 -0.000000 0.000000 0.000000 0.000000 0.000000 0.000000 -0.000000 0.000000 0.000000 -0.000000 0.000000 0.000000 -0.000000 0.000000 0.000000 -0.000000 0.000000 0.000000 0.000000 0.000000 0.000000 0.000000 0.000000 0.000000 -0.000000 0.000000 0.000000 -0.000000 0.000000 0.000000 -0.000000 0.000000 0.000000 -0.000000 0.000000 0.000000 0.000000 0.000000 0.000000 0.000000 0.000000 0.000000 -0.000000 0.000000 46.810687 -0.000000 0.000000 0.000000 -0.000000 0.000000 0.000000 0.000000 0.000000 0.000000 -0.000000 0.000000 46.810687 -0.000000 0.000000 0.000000 -0.000000 0.000000 0.000000 0.000000 0.000000 0.000000
-37.976433 88.733695 352.551905 0.192259 -0.411950 -47.025049 -0.432464 0.140148 47.026269 -0.000000 0.000000 0.000000 0.162195 1.272968 -0.622886 0.000000 0.000000 0.000000 -0.000000 0.000000 0.000000 2.047882 1.315350 -0.491594 -3.458525 4.166557 1.043953 5.494227 -6.589274 -0.348709 0.000000 0.000000 0.000000 0.000000 0.000000 0.000000 -0.498842 -0.789711 -0.197855 0.058325 -1.185011 0.095051 1.665407 5.716532 -0.509429 -0.142533 -5.168572 0.513077 0.000000 0.000000 0.000000 0.000000 0.000000 0.000000 -0.017668 -1.346936 47.527346 0.816882 1.310063 -0.506047 8.882808 9.469508 -3.516845 0.000000 0.000000 0.000000 0.925490 1.373280 47.042885 -1.827739 0.153750 -0.032099 -0.000000 0.000000 0.000000 0.000000 0.000000 0.000000
-38.114739 88.612481 351.812889 0.368023 -0.792931 -47.117781 0.342633 -0.062545 47.143082 -0.007294 0.010076 0.027224 -0.238476 3.377265 -1.181351 0.000000 0.000000 0.000000 -0.282781 2.514875 -0.534547 3.551273 1.114541 -0.386006 -6.770493 7.775323 1.982838 10.398128 -12.257735 0.175545 0.000000 0.000000 0.000000 0.000000 0.000000 0.000000 -1.445842 -0.250984 -0.377856 0.125597 -2.410823 0.137696 3.302039 10.550678 -1.056408 -0.569551 -9.267848 0.939980 0.000000 0.000000 0.000000 0.000000 0.000000 0.000000 -0.058056 -2.474435 48.055406 2.379635 2.175940 -0.851576 14.889337 15.870306 -7.169890 0.000000 0.000000 0.000000 1.655753 2.576053 47.120891 -4.030247 0.646684 -0.362907 -0.618055 -1.216648 0.995751 0.000000 0.000000 0.000000
-38.231430 88.513397 351.185801 0.527189 -1.142705 -47.090742 0.473016 -0.085504 47.128128 -0.004689 0.004806 0.039076 -0.348180 4.634154 -1.597867 0.000000 0.000000 0.000000 -0.449828 3.612803 -0.753310 4.965427 1.607343 -0.524243 -9.849430 10.737131 2.799176 14.734130 -16.821515 1.222200 0.000000 0.000000 0.000000 0.000000 0.000000 0.000000 -1.976095 -0.071698 -0.480204 0.204645 -3.654152 0.132338 4.880275 14.395305 -1.589536 -1.271440 -12.263491 1.203026 0.000000 0.000000 0.000000 0.000000 0.000000 0.000000 -0.135301 -3.379579 48.390917 3.294447 2.938612 -1.199701 19.306759 19.621347 -9.976011 0.000000 0.000000 0.000000 2.186943 3.590860 47.059621 -5.480076 0.993247 -0.496233 -1.446470 -2.374957 1.509778 0.000000 0.000000 0.000000
-38.326505 88.436444 350.670641 0.669666 -1.461076 -46.944627 0.576075 -0.104171 46.993347 0.002099 -0.007464 0.049748 -0.457795 5.613126 -1.900267 0.000000 0.000000 0.000000 -0.636964 4.604160 -0.936925 6.127863 2.049006 -0.624606 -12.629043 13.018217 3.472936 18.449295 -20.220695 2.462572 0.000000 0.000000 0.000000 0.000000 0.000000 0.000000 -2.375587 0.310556 -0.525888 0.297600 -4.895695 0.083878 6.360855 17.184222 -2.048723 -2.244430 -14.135370 1.257062 0.000000 0.000000 0.000000 0.000000 0.000000 0.000000 -0.259682 -4.060519 48.529709 4.013060 3.488643 -1.477137 21.866879 21.560050 -11.774878 0.000000 0.000000 0.000000 2.516453 4.406700 46.871119 -6.536048 1.353219 -0.602261 -2.630315 -3.922378 2.009930 0.000000 0.000000 0.000000
-38.399966 88.381622 350.267409 0.795377 -1.747885 -46.678938 0.651872 -0.119068 46.738000 0.013076 -0.026811 0.059236 -0.570355 6.319711 -2.089461 0.000000 0.000000 0.000000 -0.846603 5.488562 -1.083398 7.038062 2.436474 -0.687503 -15.064799 14.622624 3.985567 21.445895 -22.473475 3.610250 0.000000 0.000000 0.000000 0.000000 0.000000 0.000000 -2.643817 0.895572 -0.516803 0.405986 -6.120183 -0.002498 7.699563 18.883052 -2.369020 -3.479389 -14.869913 1.089209 0.000000 0.000000 0.000000 0.000000 0.000000 0.000000 -0.437652 -4.515669 48.467587 4.528346 3.829697 -1.673517 22.746163 22.131302 -12.522435 0.000000 0.000000 0.000000 2.642727 5.018453 46.563998 -7.191404 1.726744 -0.683334 -4.178131 -5.873375 2.467403 0.000000 0.000000 0.000000
-38.442520 88.368289 350.206659 0.902650 -2.157976 -46.061677 0.741144 -0.147436 46.132113 0.036808 -0.065931 0.069592 -0.631484 6.435131 -1.974920 0.000000 0.000000 0.000000 -1.397494 6.483844 -1.090003 8.206967 3.093921 -0.860019 -17.371881 16.339186 4.520414 23.729767 -25.685426 4.903484 0.000000 0.000000 0.000000 0.000000 0.000000 0.000000 -2.785174 2.568814 -0.363539 0.612905 -8.417877 -0.238566 9.494469 20.383553 -2.717425 -5.074368 -15.353975 0.771099 0.000000 0.000000 0.000000 0.000000 0.000000 0.000000 -0.981506 -4.253348 47.834535 4.506206 3.673592 -1.649298 21.504325 20.967561 -11.754564 0.000000 0.000000 0.000000 2.440450 5.806487 45.873080 -7.788657 2.195888 -0.847442 -8.403293 -11.345074 3.042723 0.000000 0.000000 0.000000
-38.407905 88.372431 350.183046 1.047368 -2.489426 -45.463553 0.770825 -0.157897 45.546210 0.056580 -0.096662 0.079520 -0.908764 6.480212 -1.793243 0.000000 0.000000 0.000000 -1.843120 7.503697 -1.174802 8.906554 3.114606 -0.809468 -19.822803 16.891931 4.767122 25.215222 -24.795753 5.130938 0.000000 0.000000 0.000000 0.000000 0.000000 0.000000 -2.817171 3.783918 -0.235407 0.769169 -9.740891 -0.403869 10.128123 19.879088 -2.542112 -6.340488 -12.685324 0.362437 0.000000 0.000000 0.000000 0.000000 0.000000 0.000000 -1.670748 -4.067541 47.223352 4.647005 3.283159 -1.606026 17.512687 17.543099 -9.487897 0.000000 0.000000 0.000000 1.883674 6.117128 45.240928 -7.709876 2.559351 -0.949259 -14.520248 -18.830419 2.629890 0.000000 0.000000 0.000000
-38.433830 88.366979 349.996518 1.108501 -2.596922 -44.869436 0.720993 -0.141781 44.955809 0.069279 -0.113183 0.082593 -1.000509 6.390130 -1.708351 0.000000 0.000000 0.000000 -1.878636 7.838235 -1.256405 8.634013 3.374277 -0.696238 -20.875598 15.523218 4.417586 25.498619 -23.191804 4.801097 0.000000 0.000000 0.000000 0.000000 0.000000 0.000000 -2.725894 4.613997 -0.121609 0.741191 -10.113456 -0.491848 11.123042 17.691079 -2.070828 -9.736832 -10.178125 -0.623447 0.000000 0.000000 0.000000 0.000000 0.000000 0.000000 -1.819147 -4.006060 46.628082 4.563153 3.127446 -1.574149 14.865992 13.952751 -8.271418 0.000000 0.000000 0.000000 1.503621 5.938706 44.658653 -6.975593 3.031566 -0.910085 -15.080079 -19.432307 2.504158 0.000000 0.000000 0.000000
-38.453195 88.382232 349.828827 1.150841 -2.593549 -44.427354 0.676001 -0.118125 44.515170 0.111245 -0.166653 0.087074 -1.113913 6.489827 -1.737232 0.000000 0.000000 0.000000 -1.996993 7.929621 -1.268226 8.104492 3.251412 -0.551304 -21.288876 13.253304 3.773243 23.964477 -18.917135 3.495234 0.000000 0.000000 0.000000 0.000000 0.000000 0.000000 -2.699437 5.125964 -0.048509 1.121367 -10.138494 -0.528209 11.677205 14.962375 -1.337165 -12.020033 -7.568159 -1.277912 0.000000 0.000000 0.000000 0.000000 0.000000 0.000000 -1.813787 -4.022687 46.185982 4.513308 2.990605 -1.538524 12.652471 12.195056 -7.169816 0.000000 0.000000 0.000000 1.014621 5.470396 44.249775 -5.736325 3.337682 -0.756892 -11.914595 -15.311306 2.959673 0.000000 0.000000 0.000000
-38.482397 88.381040 349.641292 1.163484 -2.528459 -44.080183 0.607994 -0.108445 44.166660 0.114450 -0.194963 0.086404 -1.057951 6.358218 -1.734680 0.000000 0.000000 0.000000 -1.885810 7.799242 -1.291393 7.360385 3.254083 -0.412975 -21.479698 9.740100 2.766337 23.529930 -15.290256 2.744385 0.000000 0.000000 0.000000 0.000000 0.000000 0.000000 -2.578777 5.381486 0.006186 1.399910 -9.624967 -0.522628 13.384283 11.585021 -0.445294 -15.453677 -3.553632 -1.923018 0.000000 0.000000 0.000000 0.000000 0.000000 0.000000 -1.626998 -4.076972 45.841187 4.496997 3.084463 -1.529273 7.805603 8.372000 -4.752260 0.000000 0.000000 0.000000 0.675354 5.013822 43.931913 -4.611788 3.484580 -0.578719 -12.638799 -15.115566 3.154281 0.000000 0.000000 0.000000
-38.519116 88.377325 349.441078 1.132656 -2.432209 -43.778599 0.549861 -0.106649 43.861064 0.086232 -0.208942 0.081821 -0.751248 6.108452 -1.771827 0.000000 0.000000 0.000000 -1.572302 7.478314 -1.314993 6.201729 2.840814 -0.199523 -21.064515 6.354684 1.752757 22.405763 -11.728705 1.995149 0.000000 0.000000 0.000000 0.000000 0.000000 0.000000 -2.226407 4.843926 -0.004688 1.364508 -7.899550 -0.457748 15.752369 8.152234 0.553107 -18.895819 -3.604298 -2.679976 0.000000 0.000000 0.000000 0.000000 0.000000 0.000000 -1.271784 -4.118517 45.538098 4.291586 3.212279 -1.511228 6.799610 7.400953 -4.327632 0.000000 0.000000 0.000000 0.593736 4.602631 43.659526 -3.843410 3.628164 -0.454171 -12.350031 -14.380620 2.981360 0.000000 0.000000 0.000000
